<?xml version="1.0" standalone="no"?>
<!DOCTYPE svg PUBLIC "-//W3C//DTD SVG 20010904//EN"
 "http://www.w3.org/TR/2001/REC-SVG-20010904/DTD/svg10.dtd">
<svg version="1.0" xmlns="http://www.w3.org/2000/svg"
 width="420.000000pt" height="420.000000pt" viewBox="0 0 420.000000 420.000000"
 preserveAspectRatio="xMidYMid meet">
<metadata>
Created by potrace 1.14, written by Peter Selinger 2001-2017
</metadata>
<g transform="translate(0.000000,420.000000) scale(0.100000,-0.100000)"
fill="#000000" stroke="none">
<path d="M2223 3835 c-24 -7 -58 -22 -77 -33 -21 -12 -63 -23 -106 -28 -52 -5
-82 -14 -113 -34 -23 -15 -67 -35 -97 -43 -72 -21 -146 -71 -179 -120 -14 -22
-67 -81 -118 -132 -77 -77 -94 -100 -107 -145 -9 -30 -16 -63 -16 -75 0 -12
-13 -55 -30 -95 -19 -46 -30 -90 -30 -121 0 -26 -7 -80 -15 -120 -10 -48 -17
-151 -20 -308 -3 -164 -9 -259 -20 -311 -24 -112 -30 -170 -16 -170 6 0 11 3
11 8 0 22 62 374 75 421 30 114 87 278 123 351 43 90 120 170 186 195 65 25
181 16 314 -25 115 -35 466 -90 577 -90 70 0 201 -26 285 -57 112 -41 185
-125 220 -253 7 -25 14 -121 16 -215 2 -93 7 -195 11 -225 6 -44 2 -80 -19
-180 -39 -174 -45 -251 -24 -269 24 -20 40 6 66 109 11 47 26 98 32 114 l12
29 9 -24 c8 -21 11 -16 31 46 12 39 30 84 39 102 9 17 26 71 37 120 12 48 28
98 36 111 45 69 66 193 68 407 1 168 -9 204 -77 275 -19 19 -44 54 -55 77 -12
23 -47 63 -79 90 -31 26 -70 62 -88 80 -42 43 -93 63 -164 63 l-59 0 -5 43
c-22 173 -40 223 -95 261 -20 14 -50 42 -66 62 -31 39 -120 86 -208 110 -66
17 -209 17 -265 -1z"/>
<path d="M1585 2618 c-35 -19 -85 -71 -85 -89 0 -16 4 -16 58 3 67 24 108 18
257 -38 49 -18 91 -31 94 -29 2 3 -19 28 -48 56 -88 85 -217 130 -276 97z"/>
<path d="M1532 2334 c-53 -20 -102 -68 -102 -100 0 -13 2 -24 5 -24 2 0 24 14
47 30 24 17 61 33 82 37 l40 6 -24 -32 c-32 -46 -33 -136 -1 -162 32 -26 122
-44 149 -30 30 16 55 14 48 -4 -10 -27 11 -16 38 19 14 19 26 44 26 55 0 27
15 27 34 -1 15 -21 16 -21 16 -3 -1 30 -34 97 -68 136 -66 75 -195 108 -290
73z m152 -86 c8 -14 7 -21 -6 -34 -30 -30 -75 9 -48 42 16 18 39 15 54 -8z"/>
<path d="M2320 2261 c-24 -7 -24 -8 -5 -18 11 -5 43 -16 70 -23 44 -12 47 -15
25 -20 -28 -8 80 -24 162 -25 25 0 44 -4 41 -8 -3 -5 10 -6 29 -2 18 3 60 -1
93 -9 33 -8 63 -12 68 -9 14 8 -40 58 -90 83 -35 17 -73 25 -157 31 -133 9
-202 9 -236 0z"/>
<path d="M1241 2245 c0 -5 6 -19 14 -29 8 -11 15 -15 15 -10 0 6 -7 19 -15 30
-8 10 -14 15 -14 9z"/>
<path d="M2400 2001 l-45 -8 60 -2 c72 -1 222 -25 288 -45 26 -8 47 -12 47 -8
0 4 -26 14 -57 23 -32 9 -65 18 -73 20 -8 2 -17 7 -20 11 -8 11 -150 17 -200
9z"/>
<path d="M3174 1854 c-19 -19 -34 -40 -34 -45 0 -6 11 3 25 20 14 16 35 33 45
36 11 4 20 11 20 16 0 19 -24 8 -56 -27z"/>
<path d="M1894 1720 c9 -51 62 -97 122 -106 45 -6 49 -5 76 25 35 40 36 59 2
32 -54 -42 -153 -16 -187 49 l-19 35 6 -35z"/>
<path d="M3044 1633 c-16 -26 -49 -75 -74 -108 -26 -33 -60 -80 -75 -105 -82
-126 -232 -288 -336 -363 -81 -57 -217 -128 -307 -159 -56 -19 -87 -23 -192
-23 -141 0 -222 17 -330 69 -157 75 -350 326 -436 566 -29 81 -31 56 -3 -30
71 -217 276 -475 439 -553 186 -89 367 -99 570 -31 92 31 250 109 327 162 112
77 314 306 374 424 11 22 30 43 42 48 12 5 17 9 10 9 -8 1 -6 20 7 68 10 37
17 69 15 71 -2 2 -16 -18 -31 -45z"/>
<path d="M1261 1594 c0 -11 3 -14 6 -6 3 7 2 16 -1 19 -3 4 -6 -2 -5 -13z"/>
<path d="M1710 1515 c0 -13 34 -72 57 -99 39 -47 118 -105 163 -121 62 -22
203 -20 281 5 90 27 167 77 211 135 20 27 35 51 32 54 -3 3 -9 -1 -14 -9 -8
-13 -47 -15 -232 -15 -209 1 -230 2 -331 28 -103 25 -167 34 -167 22z m285
-66 c92 -13 110 -17 103 -25 -7 -6 -169 21 -213 36 l-30 10 30 -5 c17 -2 66
-9 110 -16z m19 -140 c28 0 29 -1 10 -10 -25 -13 -95 4 -114 26 -11 13 -8 13
30 0 23 -8 57 -15 74 -16z"/>
</g>
</svg>
